<?xml version="1.0" encoding="UTF-8"?><svg id="Calque_1" xmlns="http://www.w3.org/2000/svg" viewBox="0 0 154.43 155.41"><defs><style>.cls-1{fill:#2749ff;}</style></defs><path class="cls-1" d="m95.92,9.36c.76-.15,1.41-.45,1.96-.9.55-.45.95-1.03,1.19-1.73l-1.56-.36c-.19.45-.47.81-.83,1.08-.36.27-.79.45-1.28.53-.49.08-1.04.05-1.63-.09-.69-.16-1.25-.42-1.7-.79-.44-.37-.75-.83-.91-1.37-.16-.54-.17-1.13-.02-1.78s.41-1.18.8-1.59c.38-.41.85-.69,1.42-.83s1.19-.13,1.87.02c.59.14,1.09.35,1.5.63.41.29.72.63.93,1.03.21.4.3.84.28,1.33l1.56.36c.09-.74-.02-1.44-.32-2.08-.3-.64-.76-1.2-1.38-1.66-.62-.46-1.37-.79-2.25-.99-.98-.22-1.89-.23-2.72-.02-.83.21-1.53.61-2.1,1.2-.57.59-.96,1.33-1.16,2.24-.21.91-.18,1.75.08,2.52.26.78.71,1.44,1.37,1.99.65.55,1.47.94,2.45,1.16.88.2,1.7.23,2.46.08Z"/><path class="cls-1" d="m100.77,10.87c.47.5,1.09.9,1.86,1.19.77.29,1.5.41,2.18.35.69-.06,1.29-.28,1.8-.65.52-.38.9-.89,1.15-1.55.25-.67.31-1.31.18-1.93-.14-.62-.44-1.18-.91-1.68-.47-.5-1.09-.9-1.86-1.19-.77-.29-1.5-.41-2.18-.35-.69.06-1.29.28-1.8.65-.51.37-.9.89-1.15,1.56-.25.66-.31,1.3-.18,1.92.13.62.44,1.19.91,1.69Zm.75-3.05c.17-.45.42-.8.73-1.05s.69-.4,1.12-.44c.43-.04.88.03,1.37.21.49.19.88.44,1.17.75.29.31.46.67.53,1.07.07.4.02.82-.15,1.27-.17.45-.42.8-.73,1.05s-.69.4-1.11.44-.88-.03-1.38-.22c-.49-.19-.87-.44-1.16-.75-.29-.32-.47-.67-.54-1.07-.07-.4-.02-.82.15-1.27Z"/><path class="cls-1" d="m110.05,15.4c.56.3,1.13.44,1.73.43.59-.02,1.17-.18,1.74-.48.08-.04.14-.1.22-.15l-.67,1.63,1.4.76,1.35-3.24,3.27-4.77-1.42-.76-2.37,3.48c0-.08.01-.17,0-.25-.06-.64-.25-1.21-.56-1.71-.31-.51-.75-.91-1.3-1.21-.58-.32-1.17-.46-1.77-.44-.59.02-1.14.2-1.65.53-.51.33-.93.81-1.27,1.44-.33.62-.5,1.23-.5,1.84,0,.61.15,1.17.46,1.67.31.51.75.92,1.34,1.23Zm.1-4c.22-.4.49-.71.82-.93.33-.22.69-.33,1.07-.35.38-.02.76.08,1.13.28.38.21.69.48.92.83.23.35.39.74.47,1.18.09.44.09.9.03,1.38-.36.32-.75.57-1.17.74s-.83.26-1.25.25-.82-.11-1.19-.31c-.37-.2-.66-.47-.85-.79-.2-.33-.29-.69-.29-1.09,0-.4.11-.79.32-1.2Z"/><path class="cls-1" d="m117.16,15.28c-.41.58-.63,1.19-.66,1.83-.02.64.13,1.26.45,1.86.33.6.81,1.13,1.46,1.59.5.36,1.05.63,1.64.83.59.2,1.15.29,1.68.27l.65-.92c-.51,0-1.03-.09-1.57-.28-.54-.18-1.02-.42-1.44-.73-.47-.33-.82-.7-1.05-1.11-.23-.4-.33-.82-.3-1.25.02-.23.07-.46.16-.68l4.85,3.46c.48-.68.78-1.35.89-2.03.11-.68.04-1.32-.22-1.92-.26-.6-.69-1.12-1.31-1.56-.62-.44-1.26-.71-1.91-.81-.65-.1-1.27-.03-1.85.21-.58.24-1.07.65-1.48,1.22Zm2.27.05c.35-.16.72-.21,1.1-.17.38.05.76.2,1.13.47.35.25.61.54.76.86.16.32.22.67.19,1.04-.02.24-.1.48-.21.72l-3.54-2.52c.18-.17.36-.31.57-.4Z"/><path class="cls-1" d="m133.2,31.21c.26-.24.44-.51.54-.82.1-.31.08-.67-.05-1.07-.13-.41-.4-.89-.82-1.44l-1.05-1.37c-.32-.42-.49-.74-.53-.96-.04-.22,0-.4.14-.52.21-.19.47-.22.79-.08.32.13.67.41,1.05.82.36.39.6.74.73,1.05.13.31.18.58.16.81s-.09.42-.2.57l1.07,1.17c.31-.34.48-.75.51-1.22.03-.48-.06-.98-.29-1.52s-.58-1.07-1.06-1.58c-.46-.5-.92-.88-1.39-1.15s-.91-.4-1.34-.4c-.42,0-.81.16-1.15.47-.24.22-.4.49-.49.81-.09.32-.07.7.07,1.14.14.44.43.94.87,1.52l.81,1.06c.37.49.59.85.66,1.08.07.24.02.43-.14.58-.24.22-.52.26-.86.12-.34-.14-.72-.44-1.16-.92-.3-.33-.54-.66-.69-.98-.16-.33-.24-.63-.24-.92,0-.29.08-.54.23-.75l-1.07-1.17c-.34.35-.54.77-.6,1.26-.05.49.04,1.02.3,1.6.25.57.65,1.16,1.2,1.75.53.58,1.04,1,1.52,1.26s.94.37,1.36.33c.42-.04.8-.21,1.13-.52Z"/><path class="cls-1" d="m133.65,32.61c-.23.6-.29,1.23-.17,1.91.12.68.42,1.35.9,2.02.48.67,1.02,1.17,1.63,1.5.61.33,1.23.48,1.87.45.64-.03,1.24-.25,1.81-.66.58-.42.98-.92,1.21-1.51.23-.59.28-1.23.17-1.91-.12-.68-.42-1.35-.9-2.02-.48-.67-1.02-1.17-1.63-1.5-.6-.33-1.23-.48-1.86-.45-.63.03-1.24.25-1.82.67-.57.41-.97.92-1.21,1.51Zm2.13-.22c.39-.28.79-.44,1.19-.47.4-.03.8.05,1.18.25.38.2.72.51,1.03.93.31.43.49.85.56,1.27.07.42.02.82-.14,1.19s-.44.7-.83.98c-.39.28-.79.44-1.19.47-.4.03-.79-.05-1.17-.24-.38-.2-.72-.51-1.03-.94-.3-.42-.49-.85-.56-1.27-.07-.42-.02-.82.14-1.19.16-.37.44-.7.83-.98Z"/><path class="cls-1" d="m138.72,40.26c-.31.43-.47.9-.49,1.41s.13,1.03.43,1.58c.27.5.63.88,1.09,1.16.45.27.97.41,1.55.43.1,0,.2-.02.29-.03l-1.33,1.03.75,1.37,1.75-1.41,4.02-2.2-.75-1.37-2.91,1.59c-.41.23-.82.35-1.21.36-.4.02-.75-.07-1.08-.25-.32-.18-.58-.47-.8-.86-.29-.53-.36-1.03-.19-1.49.16-.46.55-.86,1.17-1.2l3.09-1.69-.75-1.37-3.3,1.8c-.58.32-1.03.69-1.34,1.13Z"/><path class="cls-1" d="m141.44,48.32l.6,1.44,2.84-1.19c.51-.21.97-.3,1.4-.27.43.03.79.17,1.1.42.31.24.55.57.72.97.07.17.13.35.19.56.06.2.1.39.12.57l1.26-.53c-.01-.13-.04-.28-.09-.44-.05-.16-.1-.32-.16-.47-.18-.42-.41-.75-.71-1s-.63-.42-1.01-.52c-.37-.09-.76-.12-1.18-.08l1.62-1.02-.6-1.44-1.85,1.22-4.26,1.79Z"/><path class="cls-1" d="m146.72,52.06c-.67.21-1.22.55-1.63,1.03-.41.48-.68,1.05-.79,1.7-.11.66-.05,1.36.18,2.11.2.66.5,1.22.89,1.68.39.46.85.81,1.36,1.03.51.22,1.05.28,1.61.2l-.46-1.5c-.5.04-.95-.09-1.36-.41-.41-.32-.7-.77-.88-1.35-.14-.46-.17-.89-.1-1.29.07-.4.25-.74.53-1.03.28-.29.65-.51,1.11-.65.47-.14.9-.17,1.29-.09.39.08.73.27,1.01.56.29.29.5.66.64,1.12.18.57.19,1.1.04,1.59-.15.49-.45.86-.91,1.12l.46,1.5c.52-.24.93-.6,1.23-1.07.3-.47.49-1.01.55-1.61.06-.61,0-1.24-.21-1.9-.23-.75-.58-1.36-1.04-1.85-.46-.48-1-.8-1.61-.97-.61-.16-1.25-.14-1.93.06Z"/><path class="cls-1" d="m149.26,60.5c-.7.13-1.28.41-1.75.85-.47.44-.79.99-.98,1.65-.19.66-.21,1.38-.07,2.16.11.61.31,1.19.59,1.74.29.55.62,1.01,1.01,1.36l1.11-.2c-.37-.36-.68-.79-.93-1.29-.26-.51-.43-1.02-.53-1.53-.1-.57-.1-1.07.02-1.52.12-.45.34-.82.66-1.11.17-.15.37-.28.59-.37l1.06,5.86c.82-.15,1.5-.43,2.06-.83.55-.41.95-.92,1.18-1.52.23-.61.29-1.29.15-2.03-.13-.75-.4-1.39-.8-1.91-.4-.53-.89-.9-1.47-1.14-.58-.23-1.22-.29-1.91-.16Zm2.98,3.39c.08.42.06.81-.06,1.15-.11.34-.31.63-.59.88-.18.16-.41.27-.65.37l-.77-4.28c.24,0,.47.03.68.11.36.13.66.35.9.65.24.3.4.68.48,1.13Z"/><path class="cls-1" d="m153.14,78.01c-.24-.15-.5-.22-.81-.23-.29,0-.56.05-.81.18-.25.13-.44.32-.59.56-.15.24-.22.51-.23.8,0,.3.05.58.19.82.13.24.32.44.56.58.24.15.5.22.8.23.3,0,.58-.05.82-.18.24-.13.44-.31.58-.55.15-.23.22-.5.23-.81,0-.29-.05-.56-.18-.81-.13-.25-.32-.44-.55-.59Z"/><path class="cls-1" d="m154.31,94.91c-.18-.83-.56-1.54-1.13-2.13-.57-.59-1.3-1-2.2-1.23-.9-.24-1.74-.24-2.52,0-.79.23-1.46.67-2.04,1.3-.57.63-.99,1.44-1.24,2.42-.23.88-.28,1.69-.16,2.45.12.76.4,1.42.84,1.99.43.57,1,.98,1.69,1.24l.41-1.54c-.44-.21-.79-.5-1.06-.87-.26-.37-.42-.8-.48-1.3-.06-.5-.01-1.04.14-1.62.18-.68.46-1.24.85-1.67.39-.43.85-.72,1.39-.87.54-.15,1.14-.14,1.78.03.64.17,1.17.45,1.57.84.4.39.66.88.79,1.44.12.57.1,1.19-.08,1.87-.15.59-.38,1.08-.68,1.48-.3.4-.65.7-1.06.89-.41.2-.85.28-1.34.24l-.41,1.54c.74.11,1.44.03,2.09-.25.65-.28,1.22-.72,1.7-1.32.48-.6.84-1.34,1.06-2.21.26-.97.29-1.88.1-2.71Z"/><path class="cls-1" d="m146.98,101.89c-.65-.27-1.29-.35-1.92-.24-.63.11-1.2.4-1.72.86-.52.46-.93,1.06-1.25,1.82-.32.76-.46,1.48-.42,2.17.04.69.23,1.3.6,1.82.36.53.86.93,1.51,1.2.66.28,1.3.35,1.92.24.62-.12,1.2-.4,1.71-.86.52-.46.93-1.06,1.25-1.82.32-.76.46-1.48.42-2.17-.04-.69-.23-1.29-.59-1.82s-.86-.93-1.52-1.2Zm.56,4.72c-.2.49-.47.87-.79,1.14-.32.28-.69.44-1.09.5-.4.06-.82,0-1.27-.19-.44-.18-.78-.44-1.02-.77-.24-.33-.38-.7-.41-1.13-.03-.42.06-.88.26-1.37.2-.48.46-.86.79-1.14.33-.28.69-.45,1.09-.51.4-.06.82,0,1.27.19.44.19.79.44,1.03.77.24.33.38.71.4,1.13.03.43-.06.88-.26,1.36Z"/><path class="cls-1" d="m143.43,116.49c.52-.3.93-.72,1.25-1.27.33-.57.5-1.16.5-1.75,0-.59-.16-1.15-.48-1.66-.31-.52-.78-.95-1.4-1.31-.61-.35-1.22-.54-1.82-.56-.61-.02-1.17.11-1.69.41-.52.29-.94.72-1.28,1.3-.32.55-.48,1.12-.48,1.71,0,.6.14,1.18.43,1.75.04.08.1.15.14.22l-1.61-.73-.8,1.38,3.19,1.45,4.66,3.42.81-1.39-3.41-2.48c.08,0,.17.02.25.01.64-.04,1.22-.21,1.73-.51Zm-2.07-.25c-.44.07-.9.06-1.38-.02-.31-.37-.54-.77-.7-1.19-.16-.42-.23-.84-.21-1.26s.13-.81.35-1.19c.21-.37.49-.64.82-.83.33-.19.7-.27,1.09-.26.4.01.79.13,1.18.36.39.23.69.51.9.85.21.34.31.7.32,1.08s-.1.76-.31,1.12c-.22.37-.5.67-.86.89-.36.22-.75.37-1.2.43Z"/><path class="cls-1" d="m138.41,118.75c-.57-.43-1.17-.67-1.81-.72-.64-.04-1.27.09-1.88.39-.61.31-1.16.78-1.64,1.41-.37.49-.67,1.03-.88,1.61-.22.59-.32,1.14-.32,1.67l.9.68c.02-.51.12-1.03.32-1.56.2-.53.46-1,.77-1.42.35-.46.73-.79,1.14-1.01.41-.21.83-.3,1.26-.26.23.02.45.09.67.18l-3.61,4.74c.66.5,1.33.82,2,.95.67.13,1.32.08,1.92-.16.61-.24,1.14-.66,1.6-1.26.46-.6.75-1.23.87-1.88.12-.65.07-1.27-.15-1.85-.22-.59-.61-1.09-1.17-1.52Zm.01,3.37c-.06.38-.23.75-.51,1.12-.26.34-.56.59-.89.74-.33.15-.68.2-1.04.15-.24-.03-.48-.12-.71-.23l2.64-3.46c.16.18.3.37.38.58.15.35.19.72.13,1.1Z"/><path class="cls-1" d="m128.51,131.1c-.32-.1-.7-.09-1.14.04-.44.12-.96.4-1.54.82l-1.09.78c-.5.35-.87.56-1.1.62-.24.06-.43,0-.57-.16-.21-.24-.24-.53-.09-.86.15-.33.46-.71.96-1.13.34-.29.67-.51,1.01-.66.33-.15.64-.22.93-.21.29,0,.54.1.74.26l1.2-1.03c-.34-.35-.75-.57-1.24-.64-.49-.07-1.02.01-1.6.24-.58.23-1.18.61-1.79,1.14-.59.51-1.03,1.01-1.3,1.48-.28.48-.4.92-.38,1.35.03.42.19.8.48,1.15.23.27.5.45.8.56.31.11.66.1,1.07-.01.41-.12.9-.38,1.46-.78l1.4-1c.42-.3.75-.47.98-.5.23-.03.4.02.51.15.18.21.2.48.06.79-.15.32-.43.66-.85,1.02-.4.35-.76.58-1.07.7-.31.12-.59.16-.82.14-.23-.03-.42-.1-.56-.22l-1.2,1.04c.33.32.73.5,1.21.55.48.05.99-.03,1.53-.24.55-.21,1.09-.55,1.62-1.01.51-.44.91-.9,1.19-1.35s.43-.9.44-1.32c.01-.42-.13-.81-.43-1.16-.21-.24-.47-.41-.79-.51Z"/><path class="cls-1" d="m120.57,134.67c-.59-.25-1.22-.33-1.91-.23-.68.1-1.36.38-2.05.83-.68.46-1.2.99-1.55,1.58-.35.6-.52,1.21-.51,1.85.01.64.21,1.25.6,1.83.4.59.89,1.01,1.47,1.26.59.25,1.22.32,1.9.23.68-.1,1.37-.38,2.05-.84.68-.46,1.2-.99,1.55-1.58.35-.6.52-1.21.51-1.85,0-.64-.21-1.25-.61-1.84-.39-.58-.88-1-1.47-1.25Zm.3,4.51c-.21.37-.53.71-.97,1-.44.29-.87.47-1.29.52-.42.05-.82,0-1.18-.18-.37-.17-.68-.46-.95-.86-.27-.4-.41-.8-.43-1.2-.02-.4.07-.79.28-1.16.21-.37.53-.7.97-1,.43-.29.86-.46,1.29-.52.43-.05.82,0,1.19.18s.68.46.95.86c.27.4.41.8.43,1.2.02.41-.07.79-.29,1.17Z"/><path class="cls-1" d="m112.76,139.49c-.42-.32-.89-.5-1.39-.53-.5-.03-1.04.09-1.59.37-.51.26-.9.61-1.19,1.05-.29.45-.44.96-.48,1.53,0,.1.02.2.02.3l-.99-1.36-1.39.7,1.35,1.79,2.07,4.09,1.39-.7-1.49-2.96h0c-.21-.42-.32-.83-.33-1.23,0-.4.09-.75.29-1.07.2-.31.49-.57.88-.77.54-.27,1.04-.32,1.49-.14.45.18.84.58,1.16,1.21l1.59,3.14,1.39-.7-1.69-3.35c-.3-.59-.66-1.05-1.08-1.37Z"/><path class="cls-1" d="m104.6,141.97l-1.46.56,1.1,2.87c.2.51.27.98.22,1.41-.05.42-.2.79-.45,1.09-.25.3-.58.53-1,.69-.17.07-.36.12-.56.18-.2.05-.4.09-.58.1l.49,1.28c.13,0,.28-.03.45-.08s.32-.09.47-.15c.43-.16.77-.39,1.03-.67.26-.29.44-.62.55-1,.11-.36.14-.76.12-1.18l.96,1.65,1.46-.56-1.16-1.88-1.65-4.32Z"/><path class="cls-1" d="m99.71,145.46c-.48-.42-1.06-.7-1.73-.83-.67-.13-1.39-.08-2.16.12-.59.16-1.15.41-1.68.75-.53.33-.95.71-1.27,1.13l.3,1.09c.32-.4.73-.75,1.21-1.05s.97-.52,1.47-.66c.56-.15,1.06-.19,1.52-.11.46.08.84.26,1.16.56.17.16.31.35.42.56l-5.75,1.57c.22.8.56,1.46,1.01,1.97.46.51,1,.86,1.62,1.04.63.18,1.31.17,2.04-.03.73-.2,1.34-.52,1.83-.97.49-.45.82-.97,1-1.57.18-.6.18-1.24,0-1.92-.19-.69-.52-1.24-1-1.67Zm-.47,3.39c-.1.37-.29.69-.56.96-.28.27-.64.46-1.08.58-.42.11-.8.13-1.15.05-.35-.08-.66-.25-.93-.51-.17-.17-.31-.38-.43-.62l4.19-1.15c.02.24,0,.47-.05.69Z"/><path class="cls-1" d="m82.95,150.38c-.25-.12-.52-.18-.82-.16-.3.02-.57.1-.8.26s-.41.35-.53.6c-.12.25-.18.52-.16.82.02.3.1.57.26.8.15.23.35.41.6.53.25.12.52.18.82.16.29-.02.56-.1.79-.25.23-.15.41-.35.54-.6.12-.25.18-.52.16-.82-.02-.29-.1-.56-.26-.79-.15-.23-.35-.41-.6-.54Z"/><path class="cls-1" d="m68.25,147.14c-.68-.51-1.52-.86-2.51-1.03-.89-.15-1.71-.13-2.46.06-.75.19-1.38.52-1.91,1.01-.52.48-.89,1.08-1.09,1.79l1.57.27c.17-.46.42-.83.77-1.13.35-.29.76-.49,1.25-.6s1.03-.1,1.63,0c.69.12,1.27.35,1.74.7.46.35.79.78.99,1.31.19.53.23,1.12.12,1.77-.11.65-.35,1.2-.71,1.63-.36.43-.81.74-1.37.91-.55.17-1.18.2-1.87.08-.6-.1-1.11-.29-1.54-.55-.43-.26-.75-.59-.98-.98-.23-.39-.35-.83-.35-1.31l-1.57-.27c-.05.75.1,1.43.43,2.06.34.62.82,1.15,1.47,1.58.64.43,1.41.71,2.3.87.99.17,1.9.12,2.71-.13.82-.26,1.49-.7,2.03-1.32.54-.62.88-1.39,1.04-2.3.16-.92.08-1.75-.22-2.51-.3-.76-.79-1.4-1.48-1.91Z"/><path class="cls-1" d="m58.37,144.93c-.5-.47-1.14-.84-1.93-1.09s-1.52-.33-2.2-.23c-.68.1-1.27.35-1.76.75-.49.4-.85.94-1.06,1.61-.22.68-.24,1.32-.07,1.94.17.61.51,1.16,1.01,1.63.5.47,1.14.84,1.93,1.08s1.52.33,2.2.23c.68-.1,1.27-.35,1.76-.75.49-.4.85-.94,1.06-1.62.21-.67.24-1.32.07-1.93-.17-.62-.5-1.16-1-1.63Zm-.57,3.09c-.15.46-.37.82-.67,1.09-.3.27-.67.44-1.09.5-.42.07-.88.02-1.38-.14-.5-.16-.91-.39-1.21-.69-.3-.3-.5-.64-.6-1.04-.09-.39-.07-.82.08-1.28.15-.46.37-.82.67-1.09.3-.27.67-.44,1.09-.5s.88-.02,1.38.14c.5.16.9.39,1.21.69.31.3.51.65.6,1.04.09.39.07.82-.08,1.28Z"/><path class="cls-1" d="m48.83,140.93c-.57-.27-1.16-.38-1.75-.33-.59.05-1.16.24-1.71.58-.07.04-.14.11-.21.16l.58-1.67-1.45-.68-1.17,3.31-2.99,4.95,1.46.68,2.16-3.61c0,.08,0,.17.01.25.1.63.32,1.19.66,1.68.34.49.8.86,1.37,1.13.6.28,1.2.4,1.79.34s1.13-.26,1.62-.62c.49-.36.88-.86,1.18-1.51.3-.64.43-1.26.4-1.87-.03-.61-.22-1.16-.56-1.64s-.81-.87-1.41-1.16Zm.13,4c-.19.41-.45.74-.77.97-.32.24-.67.37-1.05.41s-.76-.03-1.15-.21c-.39-.18-.71-.44-.96-.78-.25-.33-.43-.72-.54-1.15-.11-.44-.14-.89-.1-1.38.35-.34.72-.61,1.12-.8.41-.2.82-.3,1.23-.32s.82.06,1.21.24c.38.18.68.43.9.74.21.32.33.67.36,1.07s-.06.8-.26,1.21Z"/><path class="cls-1" d="m41.76,141.46c.38-.6.56-1.22.55-1.86-.01-.64-.2-1.25-.56-1.84-.36-.58-.88-1.09-1.55-1.51-.52-.33-1.08-.57-1.68-.74-.6-.16-1.16-.22-1.69-.17l-.6.95c.51-.03,1.04.03,1.59.19.55.15,1.04.37,1.48.64.49.31.86.66,1.11,1.04.25.39.37.8.37,1.24,0,.23-.05.46-.12.69l-5.04-3.18c-.44.7-.7,1.4-.77,2.08-.07.68.04,1.32.33,1.9.29.58.75,1.08,1.4,1.48s1.29.64,1.95.7c.66.06,1.27-.05,1.83-.32.56-.27,1.04-.71,1.41-1.3Zm-2.27.08c-.34.18-.7.25-1.09.23-.39-.03-.77-.16-1.16-.4-.37-.23-.64-.5-.81-.82-.17-.31-.26-.66-.25-1.03,0-.24.07-.48.17-.73l3.68,2.32c-.17.18-.34.33-.54.43Z"/><path class="cls-1" d="m28.91,127.29c-.56-.55-1.09-.94-1.59-1.17-.5-.23-.96-.32-1.37-.26-.42.06-.79.26-1.1.58-.25.25-.41.53-.49.85-.08.31-.04.67.11,1.07.15.4.45.86.9,1.39l1.12,1.31c.34.4.53.71.59.93.05.22.02.4-.11.52-.2.2-.46.24-.78.13-.33-.12-.69-.37-1.09-.76-.38-.37-.64-.7-.79-1.01-.15-.3-.21-.57-.21-.8s.06-.42.17-.58l-1.14-1.1c-.29.35-.44.77-.44,1.25,0,.48.12.98.38,1.5s.64,1.03,1.15,1.52c.49.47.97.83,1.45,1.07.48.24.93.35,1.36.32.42-.02.8-.2,1.12-.54.22-.23.37-.51.44-.83.07-.33.03-.7-.14-1.13-.16-.43-.48-.92-.95-1.47l-.87-1.01c-.4-.46-.64-.81-.72-1.05-.08-.23-.04-.43.11-.58.22-.23.51-.29.85-.17.34.12.75.4,1.21.85.32.31.57.63.75.94.18.32.27.62.29.91.02.29-.05.54-.19.76l1.14,1.1c.32-.37.5-.8.52-1.29.03-.49-.1-1.02-.38-1.58-.28-.56-.71-1.12-1.29-1.68Z"/><path class="cls-1" d="m24.31,125.08c.2-.61.22-1.25.06-1.92-.16-.67-.49-1.33-1.01-1.97-.52-.64-1.09-1.11-1.71-1.4-.62-.29-1.25-.41-1.89-.34-.64.07-1.23.32-1.77.76-.55.45-.93.97-1.12,1.58-.2.6-.21,1.24-.06,1.91.16.67.49,1.33,1.01,1.97.52.64,1.09,1.11,1.71,1.4.62.29,1.25.41,1.88.35.63-.06,1.23-.32,1.78-.77.55-.44.92-.97,1.12-1.58Zm-1.34-.68c-.14.38-.4.72-.77,1.02-.37.3-.76.48-1.16.54-.4.06-.8,0-1.19-.18-.39-.18-.75-.47-1.08-.87-.33-.41-.54-.82-.63-1.24-.09-.42-.06-.81.08-1.2.14-.38.4-.72.77-1.02.37-.3.76-.48,1.16-.54.4-.06.8,0,1.18.18s.75.47,1.08.88c.33.4.54.82.63,1.24.09.42.07.82-.07,1.2Z"/><path class="cls-1" d="m18.83,117.73c.29-.45.42-.93.41-1.43-.01-.5-.18-1.02-.51-1.55-.3-.48-.68-.85-1.15-1.09s-.99-.36-1.57-.34c-.1,0-.2.03-.29.05l1.27-1.1-.82-1.33-1.67,1.5-3.89,2.42.82,1.33,2.82-1.75c.4-.25.8-.39,1.19-.43.4-.04.76.03,1.09.19.33.17.61.44.84.81.32.52.41,1.01.27,1.48-.14.47-.51.89-1.1,1.26l-2.99,1.86.82,1.33,3.19-1.98c.56-.35.99-.75,1.27-1.2Z"/><path class="cls-1" d="m15.65,109.82l-.68-1.4-2.76,1.35h0c-.5.24-.96.36-1.39.35-.43,0-.8-.13-1.13-.35-.32-.22-.58-.54-.77-.93-.08-.17-.16-.35-.23-.54s-.12-.39-.16-.57l-1.23.6c.02.13.06.28.11.44.06.16.12.31.19.46.2.41.45.73.76.96.31.23.66.39,1.04.46.37.07.77.08,1.18.02l-1.56,1.11.68,1.4,1.77-1.32,4.15-2.02Z"/><path class="cls-1" d="m10.18,106.41c.66-.25,1.18-.62,1.57-1.12.39-.5.62-1.08.69-1.75.07-.66-.02-1.36-.3-2.1-.24-.65-.57-1.19-.99-1.63-.42-.44-.89-.76-1.42-.95-.53-.19-1.07-.22-1.62-.1l.55,1.47c.49-.07.95.04,1.38.33.42.29.74.73.95,1.3.17.45.22.88.17,1.28-.05.4-.21.76-.47,1.06-.26.31-.62.54-1.07.71-.46.17-.88.22-1.28.16-.4-.06-.74-.23-1.04-.5-.3-.27-.54-.63-.7-1.08-.21-.56-.25-1.09-.13-1.59.12-.5.4-.89.85-1.17l-.55-1.47c-.5.27-.9.65-1.17,1.14s-.43,1.03-.46,1.64c-.03.61.07,1.24.31,1.88.27.73.65,1.33,1.14,1.79.49.45,1.04.75,1.66.88.62.13,1.26.07,1.92-.17Z"/><path class="cls-1" d="m7.15,98.09c.69-.17,1.26-.48,1.7-.95.44-.47.73-1.04.88-1.7.15-.67.13-1.39-.05-2.16-.14-.6-.37-1.17-.69-1.7-.32-.54-.68-.97-1.09-1.3l-1.1.26c.39.34.72.75,1.01,1.24s.49.99.61,1.5c.13.56.15,1.07.06,1.52-.09.45-.29.83-.6,1.14-.16.16-.35.3-.57.4l-1.39-5.79c-.81.19-1.48.51-2.01.95-.53.44-.89.97-1.09,1.59-.2.62-.21,1.3-.04,2.04.18.74.48,1.36.91,1.86.43.5.94.85,1.53,1.05.6.2,1.23.22,1.92.05Zm-3.16-3.22c-.1-.42-.1-.8,0-1.15.09-.35.27-.65.54-.91.17-.17.39-.29.63-.41l1.01,4.23c-.24,0-.47,0-.69-.07-.37-.11-.68-.31-.94-.6-.26-.29-.44-.65-.55-1.1Z"/><path class="cls-1" d="m3.92,80.81c.24-.15.42-.34.56-.59s.19-.52.19-.81c0-.3-.09-.57-.23-.81-.15-.23-.34-.42-.59-.55-.25-.13-.52-.19-.81-.19-.3,0-.57.08-.81.23s-.42.34-.55.58c-.13.24-.19.51-.19.82,0,.29.08.56.23.8.15.24.34.42.58.56.24.13.51.19.82.18.29,0,.56-.08.8-.23Z"/><path class="cls-1" d="m6.22,67.07c.77-.28,1.42-.75,1.96-1.41s.9-1.49,1.1-2.48c.18-.89.19-1.71.02-2.46-.17-.75-.48-1.4-.95-1.94-.47-.54-1.05-.92-1.76-1.15l-.32,1.56c.45.18.82.45,1.1.81.28.36.47.78.56,1.27s.07,1.04-.05,1.63c-.14.69-.39,1.26-.75,1.71-.36.45-.81.77-1.34.95-.53.18-1.13.2-1.78.07-.65-.13-1.19-.38-1.61-.76-.42-.37-.71-.84-.87-1.4s-.16-1.18-.02-1.87c.12-.6.32-1.1.6-1.52.28-.42.61-.73,1.01-.95s.84-.32,1.32-.31l.32-1.56c-.75-.07-1.44.05-2.07.37-.64.32-1.18.79-1.62,1.42s-.76,1.38-.94,2.27c-.2.99-.19,1.89.05,2.72.23.82.65,1.51,1.25,2.07.6.56,1.36.93,2.27,1.11.91.19,1.75.14,2.52-.14Z"/><path class="cls-1" d="m5.53,55.56c.39.51.91.88,1.59,1.11.66.24,1.31.28,1.93.13.62-.15,1.18-.47,1.67-.95.49-.49.87-1.12,1.15-1.89.27-.78.37-1.51.3-2.19-.08-.68-.31-1.28-.7-1.79-.39-.51-.92-.88-1.58-1.11-.67-.24-1.32-.28-1.93-.13s-1.17.47-1.66.95c-.49.49-.87,1.12-1.15,1.89-.27.78-.37,1.51-.3,2.19.08.68.31,1.28.69,1.78Zm.76-3.57c.18-.5.42-.89.73-1.19s.66-.48,1.06-.56c.4-.08.82-.04,1.27.12.45.16.81.4,1.07.71.26.31.42.68.47,1.1.05.42,0,.88-.18,1.38-.17.49-.41.88-.72,1.18-.31.3-.66.49-1.06.57s-.82.04-1.27-.12c-.45-.16-.81-.4-1.07-.71-.26-.31-.41-.68-.47-1.11-.05-.43,0-.88.18-1.38Z"/><path class="cls-1" d="m11.53,41.29c-.64.08-1.2.28-1.7.6-.5.33-.89.77-1.18,1.33-.3.59-.43,1.18-.4,1.78.04.59.23,1.14.57,1.63.34.5.83.91,1.47,1.23.63.32,1.25.47,1.85.46.61-.01,1.16-.18,1.66-.5.5-.32.9-.78,1.2-1.37.29-.56.41-1.14.38-1.74-.03-.59-.2-1.17-.52-1.73-.04-.07-.1-.14-.15-.21l1.65.63.72-1.42-3.27-1.27-4.85-3.15-.73,1.43,3.54,2.28c-.08,0-.17,0-.25,0Zm1.76.67c.33.36.59.74.77,1.15.18.41.28.82.28,1.24,0,.42-.08.82-.28,1.2-.19.38-.45.67-.77.87-.32.2-.68.31-1.08.32-.4.01-.8-.09-1.2-.29-.41-.21-.72-.47-.95-.8-.23-.32-.35-.68-.38-1.06-.03-.38.06-.76.25-1.14.2-.38.46-.7.81-.94.34-.24.73-.41,1.17-.5s.9-.12,1.38-.06Z"/><path class="cls-1" d="m14.72,39.34c.59.4,1.2.6,1.85.61s1.26-.16,1.85-.5c.59-.34,1.11-.84,1.56-1.5.35-.51.61-1.06.79-1.66.18-.6.26-1.16.23-1.68l-.93-.63c.01.51-.07,1.04-.24,1.58s-.4,1.03-.69,1.46c-.32.48-.68.83-1.08,1.07-.4.24-.81.35-1.25.33-.23,0-.46-.06-.68-.15l3.34-4.93c-.69-.47-1.37-.75-2.05-.84s-1.32,0-1.91.26c-.59.27-1.1.72-1.53,1.35-.43.63-.68,1.27-.76,1.93s0,1.27.26,1.84c.25.57.67,1.06,1.26,1.45Zm.24-4.5c.24-.36.52-.62.84-.79.32-.17.66-.24,1.03-.21.24.02.48.09.73.19l-2.44,3.6c-.17-.17-.32-.35-.41-.56-.17-.34-.23-.71-.19-1.09.04-.38.19-.77.44-1.14Z"/><path class="cls-1" d="m29.41,22.41c-.31-.09-.67-.06-1.07.08-.4.14-.88.43-1.42.86l-1.34,1.08c-.41.33-.72.51-.95.56s-.4,0-.52-.12c-.19-.2-.23-.46-.1-.79.13-.32.39-.68.79-1.07.38-.37.72-.62,1.03-.75.31-.14.58-.2.81-.18.23.02.42.08.57.19l1.14-1.1c-.35-.3-.76-.46-1.23-.48s-.98.09-1.52.33c-.53.24-1.05.61-1.56,1.1-.49.47-.86.95-1.11,1.42-.25.47-.38.92-.37,1.35,0,.42.18.8.5,1.14.22.23.5.39.82.47.32.08.7.05,1.14-.1.44-.15.93-.45,1.5-.9l1.04-.84c.48-.38.83-.61,1.07-.68.24-.07.43-.03.58.12.22.23.27.52.14.86-.13.34-.42.74-.89,1.19-.32.31-.64.55-.97.72-.32.17-.63.25-.92.26-.29,0-.54-.07-.75-.22l-1.14,1.1c.36.33.78.52,1.27.57s1.02-.07,1.59-.33c.57-.26,1.14-.68,1.72-1.24.56-.54.97-1.06,1.22-1.55.25-.49.35-.95.3-1.37-.05-.42-.23-.79-.55-1.12-.25-.25-.52-.42-.83-.52Z"/><path class="cls-1" d="m37,19.95c.31-.61.45-1.24.4-1.88-.05-.64-.28-1.24-.71-1.8-.43-.57-.94-.96-1.54-1.17-.6-.21-1.24-.25-1.91-.12-.67.13-1.34.45-2,.95-.66.5-1.14,1.05-1.46,1.67-.31.61-.45,1.24-.4,1.87.04.63.28,1.24.71,1.8.43.56.94.95,1.54,1.17.6.22,1.24.26,1.91.12.68-.13,1.34-.45,2-.95.66-.5,1.14-1.05,1.46-1.67Zm-2.19.69c-.41.31-.83.51-1.25.59-.42.08-.82.04-1.2-.11-.38-.15-.71-.42-1-.8-.29-.38-.46-.78-.5-1.18-.04-.4.03-.8.22-1.18.19-.38.49-.73.91-1.05.42-.32.84-.52,1.26-.59s.82-.04,1.19.11c.38.15.71.42,1,.8.29.38.46.78.5,1.18.04.4-.03.8-.21,1.18s-.49.73-.91,1.05Z"/><path class="cls-1" d="m39.15,17.19c.44.3.91.45,1.42.45.51,0,1.03-.15,1.57-.46.49-.28.87-.66,1.13-1.12.26-.46.39-.98.39-1.56,0-.1-.03-.2-.04-.29l1.06,1.3,1.35-.78-1.45-1.71-2.3-3.97-1.35.78,1.66,2.87c.23.41.37.81.39,1.2.03.4-.05.76-.23,1.08s-.46.6-.84.82c-.53.3-1.02.38-1.48.23-.46-.15-.87-.54-1.22-1.14l-1.76-3.04-1.35.78,1.88,3.25c.33.58.72,1.01,1.16,1.31Z"/><path class="cls-1" d="m47.17,14.26l1.42-.64-1.26-2.8h0c-.23-.5-.33-.97-.3-1.4s.15-.8.39-1.11c.24-.32.55-.56.96-.74.17-.08.35-.14.55-.21s.39-.11.57-.14l-.56-1.25c-.13.02-.28.05-.44.1s-.32.11-.46.17c-.42.19-.75.43-.99.73-.24.3-.41.64-.49,1.02-.09.37-.1.76-.06,1.18l-1.05-1.59-1.42.64,1.26,1.81,1.89,4.22Z"/><path class="cls-1" d="m51.8,10.51c.49.4,1.06.65,1.72.75s1.36.02,2.11-.23c.65-.22,1.21-.53,1.66-.93.45-.41.79-.87.99-1.39.21-.52.26-1.06.15-1.61l-1.49.5c.06.5-.07.95-.38,1.37-.31.42-.75.72-1.33.91-.45.15-.88.2-1.28.13-.4-.06-.75-.23-1.05-.5-.3-.27-.52-.64-.67-1.09-.15-.46-.19-.89-.12-1.28.07-.39.25-.73.54-1.03.28-.29.65-.51,1.11-.67.57-.19,1.1-.22,1.59-.08.49.14.87.43,1.14.88l1.49-.5c-.26-.51-.62-.92-1.1-1.21-.48-.29-1.02-.46-1.63-.51-.61-.05-1.24.03-1.89.25-.74.25-1.35.61-1.82,1.08-.47.47-.78,1.02-.93,1.63-.15.62-.11,1.26.11,1.92.22.67.58,1.2,1.07,1.6Z"/><path class="cls-1" d="m60.04,7.88c.45.45,1.01.77,1.67.94.66.17,1.38.18,2.16.02.6-.12,1.18-.34,1.73-.64.55-.3.99-.65,1.33-1.05l-.23-1.1c-.35.37-.77.7-1.27.97-.5.27-1,.46-1.51.56-.56.12-1.07.12-1.52.01-.45-.11-.83-.32-1.12-.63-.16-.17-.28-.36-.39-.58l5.83-1.2c-.17-.82-.46-1.49-.88-2.04s-.94-.92-1.55-1.14c-.61-.22-1.29-.25-2.04-.1-.75.15-1.37.44-1.89.85-.52.41-.88.91-1.1,1.5-.22.59-.26,1.23-.11,1.92.14.7.44,1.27.89,1.73Zm.68-3.36c.12-.36.33-.67.63-.92s.67-.42,1.11-.51c.42-.09.81-.08,1.15.03.34.11.64.3.89.57.16.18.28.4.39.64l-4.26.88c0-.24.02-.47.09-.69Z"/><path class="cls-1" d="m78.73,1.3c-.24-.14-.51-.21-.81-.21-.29,0-.56.07-.81.2-.24.14-.44.33-.57.56-.14.24-.21.51-.21.81,0,.29.07.56.2.81s.33.43.57.57c.24.14.51.21.8.21.3,0,.58-.07.81-.2.24-.14.43-.33.57-.57.14-.24.21-.51.21-.8,0-.3-.07-.57-.21-.81-.14-.24-.33-.43-.56-.57Z"/></svg>